<svg xmlns="http://www.w3.org/2000/svg" viewBox="0 0 256.16 23.01"><defs><style>.cls-1{fill:#242933;}</style></defs><title>vivo WATCH</title><g id="图层_2" data-name="图层 2"><g id="图层_1-2" data-name="图层 1"><g id="vivo_WATCH" data-name="vivo WATCH"><path class="cls-1" d="M11.26,23a4.52,4.52,0,0,1-2.52-.64A6.05,6.05,0,0,1,7,20.22L0,7.52H4.51l5.83,11.2a1,1,0,0,0,1,.67,1,1,0,0,0,1-.67l5.79-11.2h4.48l-7,12.7a6,6,0,0,1-1.7,2.15A4.6,4.6,0,0,1,11.26,23Z"/><path class="cls-1" d="M26.75.26a.64.64,0,0,1,1,0L29.66,2a.61.61,0,0,1,0,1.06L27.78,4.67a.67.67,0,0,1-1,0L24.86,3a.68.68,0,0,1,0-1.06Zm-1.47,22.3v-15h3.94v15Z"/><path class="cls-1" d="M43.26,23a4.52,4.52,0,0,1-2.52-.64A6.05,6.05,0,0,1,39,20.22L32,7.52h4.51l5.83,11.2a1,1,0,0,0,1,.67,1,1,0,0,0,1-.67l5.79-11.2h4.48l-7,12.7a6,6,0,0,1-1.7,2.15A4.6,4.6,0,0,1,43.26,23Z"/><path class="cls-1" d="M64.9,23a8.63,8.63,0,0,1-6.24-2.21A7.66,7.66,0,0,1,56.35,15a7.56,7.56,0,0,1,2.31-5.73A8.56,8.56,0,0,1,64.9,7.07h4.51a8.6,8.6,0,0,1,6.24,2.24A7.59,7.59,0,0,1,78,15a7.69,7.69,0,0,1-2.3,5.76A8.66,8.66,0,0,1,69.41,23Zm.38-3.3H69a5.06,5.06,0,0,0,3.62-1.21A4.64,4.64,0,0,0,73.89,15a4.5,4.5,0,0,0-1.28-3.42A5,5,0,0,0,69,10.37H65.28a4.8,4.8,0,0,0-3.58,1.25A4.47,4.47,0,0,0,60.42,15,4.6,4.6,0,0,0,61.7,18.5,4.91,4.91,0,0,0,65.28,19.71Z"/><path class="cls-1" d="M102.43,23a3.72,3.72,0,0,1-2.4-.61,5.07,5.07,0,0,1-1.31-2L91.1,1.79h4.48l6.85,17.35L109.73,4a2.38,2.38,0,0,1,2.56-1.47,3.23,3.23,0,0,1,1.56.32,2.31,2.31,0,0,1,1,1.15l7.32,15.2L129,1.79h4.48l-7.62,18.56a4.35,4.35,0,0,1-1.21,1.95,3.64,3.64,0,0,1-2.5.71,3.58,3.58,0,0,1-2.21-.55,5.11,5.11,0,0,1-1.34-1.85l-6.3-13.35L106,20.61a4.94,4.94,0,0,1-1.28,1.85A3.64,3.64,0,0,1,102.43,23Z"/><path class="cls-1" d="M161.41,22.56l-2.92-4.9H141.66l-3,4.9h-4.55L145.69,3.78a4.56,4.56,0,0,1,4.39-2.44,4.61,4.61,0,0,1,4.41,2.44L166,22.56ZM143.81,14h12.48l-4.68-7.88a1.79,1.79,0,0,0-1.53-.92,1.71,1.71,0,0,0-1.54.92Z"/><path class="cls-1" d="M179.13,22.56V5.47H167.52V1.79h27.39V5.47H183.29V22.56Z"/><path class="cls-1" d="M213.53,23c-5.24,0-9.11-.86-11.58-2.56s-3.74-4.47-3.74-8.23S199.45,5.72,202,4s6.36-2.63,11.58-2.63A44.51,44.51,0,0,1,223.87,2.4V6.08A47.33,47.33,0,0,0,213.73,5q-6,0-8.58,1.7t-2.59,5.5q0,3.78,2.62,5.44t8.58,1.67a45.51,45.51,0,0,0,10.3-1V22Q221.21,22.88,213.53,23Z"/><path class="cls-1" d="M229.37,22.56V1.79h4.13v8.48H252V1.79h4.13V22.56H252V14H233.5v8.61Z"/></g></g></g></svg>