<?xml version="1.0" encoding="UTF-8"?>
<svg width="312px" height="84px" viewBox="0 0 312 84" version="1.1" xmlns="http://www.w3.org/2000/svg" xmlns:xlink="http://www.w3.org/1999/xlink">
    <title>X系列</title>
    <g id="页面-1" stroke="none" stroke-width="1" fill="none" fill-rule="evenodd">
        <g id="X系列_Wap" transform="translate(-380.000000, -474.000000)" fill="#242933" fill-rule="nonzero">
            <g id="编组-23" transform="translate(333.000000, 474.000000)">
                <path d="M65.56,78 L91.3,51.6 C93.06,49.73 94.6,49.07 96.69,49.07 C99,49.07 100.43,49.84 102.19,51.6 L128.15,78 L146.85,78 L111.1,41.81 L146.3,6.61 L127.71,6.61 L102.19,32.35 C100.43,34.11 98.89,34.77 96.8,34.77 C94.71,34.77 93.06,34 91.41,32.35 L65.89,6.61 L47.41,6.61 L82.61,41.81 L46.97,78 L65.56,78 Z M210.32,81.63 C212.19,79.76 213.18,77.01 213.18,72.83 L213.18,52.26 C220,51.82 226.71,51.16 233.31,50.28 L237.6,55.45 L251.02,55.45 L234.19,34.88 L220.99,34.88 L226.6,41.92 C216.04,43.13 204.6,43.9 193.6,44.12 C209.11,36.97 224.29,28.39 238.15,18.93 L219.12,18.93 L210.32,24.21 C203.06,24.87 195.69,25.2 189.53,25.09 C194.15,22.67 199.87,18.93 204.71,15.08 L209.77,15.08 C217.03,15.08 225.61,14.97 232.98,14.2 C237.93,13.65 243.54,12.77 248.38,11.67 L248.38,2.1 C242.88,3.53 237.16,4.52 231.33,5.07 C225.181579,5.59105263 217.058643,5.71720222 210.702378,5.72903776 L160.71,5.73 L160.71,15.08 L187.55,15.08 C181.5,19.48 173.8,24.1 165.99,27.84 C164.56,28.5 163.57,29.82 163.68,31.25 C163.79,32.79 165,34.11 167.09,34.11 C176.33,34.11 185.13,33.78 194.04,33.01 C183.81,38.29 173.25,43.24 163.02,47.42 C161.26,48.19 160.6,49.73 160.93,51.05 C161.04,52.37 162.14,53.58 163.79,53.58 C176,53.69 188.32,53.69 200.75,53.03 L200.75,71.29 C200.75,73.82 199.54,74.15 197.56,73.93 C193.16,73.49 189.42,72.06 184.47,69.53 L184.47,79.54 C190.3,82.07 195.8,83.5 201.19,83.72 C205.26,84.05 208.34,83.39 210.32,81.63 Z M253.22,81.19 L235.51,58.09 L222.53,58.09 L240.13,81.19 L253.22,81.19 Z M169.73,81.19 L187.11,58.42 L173.69,58.42 L156.53,81.19 L169.73,81.19 Z M355.3,81.63 C357.17,79.98 358.16,77.12 358.16,72.5 L358.16,0.78 L346.39,0.78 L346.39,70.63 C346.39,72.94 345.95,73.71 343.75,73.49 C338.47,72.83 332.42,70.41 327.14,67.66 L327.14,78.44 C329.56,79.65 333.74,81.19 336.49,81.96 C339.35,82.84 342.43,83.39 345.29,83.61 C349.8,83.94 353.1,83.39 355.3,81.63 Z M281.49,83.83 C296.78,72.61 306.57,59.74 312.29,43.57 C314.16,38.29 315.92,32.57 316.91,26.41 C317.35,23.55 316.36,21.9 312.95,21.9 L292.05,21.9 C293.26,19.59 294.36,17.17 295.35,14.75 L320.54,14.75 L320.54,4.85 L268.4,4.85 L268.4,14.75 L283.58,14.75 C279.07,24.43 272.47,36.2 266.09,46.65 L278.08,46.65 C280.94,42.36 284.13,37.19 287.21,31.47 L304.92,31.47 C303.27,36.97 301.4,41.92 299.2,46.54 C295.35,44.12 290.51,41.7 286.77,40.05 L282.15,48.52 C285.56,50.17 290.29,52.92 294.03,55.34 C288.31,63.81 280.39,71.51 268.84,79.87 L281.49,83.83 Z M336.16,57.54 L336.16,9.36 L324.94,9.36 L324.94,57.54 L336.16,57.54 Z" id="X系列"></path>
            </g>
        </g>
    </g>
</svg>