<svg xmlns="http://www.w3.org/2000/svg" viewBox="0 0 88.93 21.66"><defs><style>.cls-1{fill:#242933;}</style></defs><g id="图层_2" data-name="图层 2"><g id="图层_1-2" data-name="图层 1"><path class="cls-1" d="M10.37,10.69.13.45H5.5l7.43,7.49a2.09,2.09,0,0,0,1.57.7,2,2,0,0,0,1.56-.7L23.49.45h5.4L18.65,10.69l10.4,10.52H23.61l-7.55-7.67a2,2,0,0,0-1.6-.74,1.94,1.94,0,0,0-1.56.74L5.41,21.21H0Z"/><path class="cls-1" d="M52.67,4H30.85V.45h24c2.09,0,2.92,1,2.92,2.4a3.74,3.74,0,0,1-1.38,2.72L41.47,21.21H35.94Z"/><path class="cls-1" d="M60.61,10.82C60.61,4.1,64.38,0,74.78,0S88.93,4.1,88.93,10.82,85.15,21.66,74.78,21.66,60.61,17.5,60.61,10.82Zm23.93,0c0-4.61-2.3-7.14-9.76-7.14S65,6.21,65,10.82,67.29,18,74.78,18,84.54,15.42,84.54,10.82Z"/></g></g></svg>