<?xml version="1.0" encoding="UTF-8"?>
<svg width="40px" height="28px" viewBox="0 0 40 28" version="1.1" xmlns="http://www.w3.org/2000/svg" xmlns:xlink="http://www.w3.org/1999/xlink">
    <title>ic/前往/白色</title>
    <g id="控件" stroke="none" stroke-width="1" fill="none" fill-rule="evenodd">
        <g id="文本btn/白色字/政企banner" transform="translate(-86.000000, 0.000000)">
            <g id="ic/前往/白色" transform="translate(86.000000, 0.000000)">
                <g id="编组-9">
                    <path d="M26,1 L14,1 C10.4101491,1 7.16014913,2.45507456 4.80761184,4.80761184 C2.45507456,7.16014913 1,10.4101491 1,14 C1,17.5898509 2.45507456,20.8398509 4.80761184,23.1923882 C7.16014913,25.5449254 10.4101491,27 14,27 L26,27 C29.5898509,27 32.8398509,25.5449254 35.1923882,23.1923882 C37.5449254,20.8398509 39,17.5898509 39,14 C39,10.4101491 37.5449254,7.16014913 35.1923882,4.80761184 C32.8398509,2.45507456 29.5898509,1 26,1 Z" id="矩形" stroke="#415fff" stroke-width="2"></path>
                    <path d="M17.6736087,9 L19.5991738,9 C19.8543117,9 20.0974603,9.10828927 20.2681386,9.29793174 L24.1989659,13.6655176 C24.3701031,13.8556701 24.3701031,14.1443299 24.1989659,14.3344824 L20.2681386,18.7020683 C20.0974603,18.8917107 19.8543117,19 19.5991738,19 L17.6736087,19 C17.5079233,19 17.3736087,18.8656854 17.3736087,18.7 C17.3736087,18.6258875 17.4010418,18.554398 17.4506205,18.4993106 L21.3193795,14.2006894 C21.4220619,14.0865979 21.4220619,13.9134021 21.3193795,13.7993106 L17.4506205,9.50068942 C17.3397828,9.37753641 17.3497663,9.18784946 17.4729193,9.07701176 C17.5280067,9.02743309 17.5994962,9 17.6736087,9 Z" id="矩形" fill="#415fff"></path>
                </g>
            </g>
        </g>
    </g>
</svg>