<svg xmlns="http://www.w3.org/2000/svg" viewBox="0 0 170.65 21.66"><defs><style>.cls-1{fill:#242933;}</style></defs><g id="图层_2" data-name="图层 2"><g id="图层_1-2" data-name="图层 1"><path class="cls-1" d="M10.37,10.69.13.45H5.5l7.43,7.49a2.09,2.09,0,0,0,1.57.7,2,2,0,0,0,1.56-.7L23.49.45h5.4L18.65,10.69l10.4,10.52H23.61l-7.55-7.67a2,2,0,0,0-1.6-.74,1.94,1.94,0,0,0-1.56.74L5.41,21.21H0Z"/><path class="cls-1" d="M52.67,4H30.85V.45h24c2.09,0,2.92,1,2.92,2.4a3.74,3.74,0,0,1-1.38,2.72L41.47,21.21H35.94Z"/><path class="cls-1" d="M60.61,10.82C60.61,4.1,64.38,0,74.78,0S88.93,4.1,88.93,10.82,85.15,21.66,74.78,21.66,60.61,17.5,60.61,10.82Zm23.93,0c0-4.61-2.3-7.14-9.76-7.14S65,6.21,65,10.82,67.29,18,74.78,18,84.54,15.42,84.54,10.82Z"/><path class="cls-1" d="M130.21,7.42c0,4.52-3.3,7-7.88,7H109.66v6.75h-4.13V.45h16.8C126.91.45,130.21,2.94,130.21,7.42Zm-4.32,0c0-2.2-1.38-3.39-3.84-3.39H109.66v6.85h12.39C124.51,10.88,125.89,9.66,125.89,7.42Z"/><path class="cls-1" d="M133.92,6.59a.76.76,0,0,1,.83-.86,2.76,2.76,0,0,1,1.41.73l1.28,1a27.18,27.18,0,0,1,9.44-1.76V9.38c-3.14.06-6.24.25-9,.57V21.21h-3.93Z"/><path class="cls-1" d="M149.05,13.7c0-4.58,3.17-8,8.55-8h4.51c5.37,0,8.54,3.39,8.54,8s-3.17,8-8.54,8H157.6C152.22,21.66,149.05,18.27,149.05,13.7Zm12.64,4.67c3.14,0,4.9-1.76,4.9-4.67S164.83,9,161.69,9H158c-3.13,0-4.86,1.76-4.86,4.68s1.73,4.67,4.86,4.67Z"/></g></g></svg>