<svg xmlns="http://www.w3.org/2000/svg" viewBox="0 0 215.87 24.22"><defs><style>.cls-1{fill:#242933;}</style></defs><title>18W双向闪充</title><g id="图层_2" data-name="图层 2"><g id="图层_1-2" data-name="图层 1"><g id="_18W双向闪充" data-name="18W双向闪充"><path class="cls-1" d="M7.68,22.46V5.31L0,6.69V3.17l8-1.6a10.51,10.51,0,0,1,2.15-.32c1.08,0,1.63.62,1.63,1.85V22.46Z"/><path class="cls-1" d="M40.93,11.52a5.08,5.08,0,0,1,3.68,4.83,5.16,5.16,0,0,1-2.91,4.87q-3,1.66-10.41,1.69-7.6,0-10.62-1.6a4.65,4.65,0,0,1-2.91-4.54,4.58,4.58,0,0,1,1.06-3,7.4,7.4,0,0,1,2.68-2.08q-3-1.58-2.94-4.39a4.68,4.68,0,0,1,2.75-4.38q2.88-1.6,10-1.63,6.66,0,9.64,1.5a4.8,4.8,0,0,1,3,4.48Q43.9,9.91,40.93,11.52Zm-9.51,8a24.64,24.64,0,0,0,6.82-.67c1.41-.45,2.11-1.24,2.11-2.37a2,2,0,0,0-1.47-2,15.57,15.57,0,0,0-4.06-.83l-9.7-1.09a6.08,6.08,0,0,0-2.18,1.47,3,3,0,0,0-.89,2.11c0,1.15.7,2,2.11,2.53A23,23,0,0,0,31.42,19.52ZM31.2,4.67a24.5,24.5,0,0,0-6.56.58c-1.24.4-1.82,1-1.76,1.89a1.84,1.84,0,0,0,1.34,1.72,14.07,14.07,0,0,0,3.43.71l9.53,1a3.46,3.46,0,0,0,2.44-3,2.37,2.37,0,0,0-1.89-2.27A20.88,20.88,0,0,0,31.2,4.67Z"/><path class="cls-1" d="M58.43,22.91A3.66,3.66,0,0,1,56,22.3a5,5,0,0,1-1.31-2L47.1,1.7h4.48L58.43,19l7.3-15.17A2.4,2.4,0,0,1,68.29,2.4a3.42,3.42,0,0,1,1.57.32,2.39,2.39,0,0,1,1,1.15l7.32,15.2L85,1.7h4.48L81.86,20.26a4.57,4.57,0,0,1-1.22,1.95,3.64,3.64,0,0,1-2.5.7,3.59,3.59,0,0,1-2.2-.54,5.06,5.06,0,0,1-1.35-1.86L68.29,7.17,62,20.51a5,5,0,0,1-1.28,1.86A3.69,3.69,0,0,1,58.43,22.91Z"/><path class="cls-1" d="M102.46,21.34c-.83-1.51-1.67-3-2.53-4.54a34.7,34.7,0,0,1-5.05,7.07l-3.75-.77a35.09,35.09,0,0,0,6.92-9.53q-2.6-4.17-5.51-8.23h3.71c1.14,1.63,2.2,3.2,3.2,4.74a31.53,31.53,0,0,0,1.41-5.82H92.19V1.34h11.33a.78.78,0,0,1,.67.36.87.87,0,0,1,.19.73,44.8,44.8,0,0,1-2.85,11c1.31,2.22,2.6,4.43,3.88,6.65Zm.67,1.64a38,38,0,0,0,7.17-7.17,44.2,44.2,0,0,1-4.93-10.47h3.3A27.91,27.91,0,0,0,112.19,13a26,26,0,0,0,3.36-8.7h-10.3V1.34h13.12a.8.8,0,0,1,.7.32,1,1,0,0,1,.13.8,34.2,34.2,0,0,1-5.06,13.38,43.32,43.32,0,0,0,6.63,7l-4,1.09a47.39,47.39,0,0,1-4.61-5.35,35.13,35.13,0,0,1-5.28,5.35Z"/><path class="cls-1" d="M128.64,24.16h-3.55V2.78h8.28l1-2.78h3.93l-1.08,2.78h12.41a1,1,0,0,1,.74.29.91.91,0,0,1,.29.71V21.12a3.29,3.29,0,0,1-.68,2.4,3.43,3.43,0,0,1-2.46.64A19.29,19.29,0,0,1,141,22.72v-3a16.84,16.84,0,0,0,5.31,1.57.68.68,0,0,0,.83-.77V5.57H128.64Zm2.91-6.08V8.16h11.81a.81.81,0,0,1,.86.9v9Zm9.38-7.2h-6.05v4.51h6.05Z"/><path class="cls-1" d="M157,24.16V5.73h3.46V24.16Zm.23-21.09V0l6.14,1.79V4.86ZM171,7.33a12.71,12.71,0,0,1-.26,2.53h2.08l4.86,8.22H174l-3.65-6.5a16.14,16.14,0,0,1-4,6.5h-4.25q5.73-5.67,5.5-10.69V5.44H171Zm1.21,12.25a26.76,26.76,0,0,0,6.27,1.6c.62,0,.93-.24.93-.8V3.94H165.53V1.12h16.36a1,1,0,0,1,.73.29.94.94,0,0,1,.26.7V20.77q0,3.45-3.65,3.39a23.69,23.69,0,0,1-7-1.57Z"/><path class="cls-1" d="M188.16,1.86H200L199.26,0h3.94l.73,1.86h11.75V4.54H201.89a49.74,49.74,0,0,1-6,5.25l4.74-.09c1.73,0,3.43-.13,5.12-.26.64-.06,1.28-.14,1.92-.22l-2.85-3.33h3.94l6.43,7.2H211l-1.28-1.51-2.43.36v8.19c0,.53.25.8.76.8h1.51a8,8,0,0,0,2.75-.55,16.61,16.61,0,0,0,3.52-1.72v3.07a14.39,14.39,0,0,1-3.14,1.57,11.94,11.94,0,0,1-3.58.57h-1.38a4.43,4.43,0,0,1-2.84-.77,3.12,3.12,0,0,1-1-2.68V12.26c-.92,0-1.83.07-2.75.09l-1.47,0a14.57,14.57,0,0,1-6,11.84L188.57,24a21.6,21.6,0,0,0,5.7-5.47,11.7,11.7,0,0,0,2-6.05l-5.44.1a1.07,1.07,0,0,1-1-.64,1.15,1.15,0,0,1,.45-1.25q3.93-3.07,7.26-6.15h-9.34Z"/></g></g></g></svg>