<svg xmlns="http://www.w3.org/2000/svg" viewBox="0 0 283.36 23.01"><defs><style>.cls-1{fill:#242933;}</style></defs><title>vivo TWS Neo</title><g id="图层_2" data-name="图层 2"><g id="图层_1-2" data-name="图层 1"><g id="vivo_TWS_Neo" data-name="vivo TWS Neo"><path class="cls-1" d="M11.26,23a4.52,4.52,0,0,1-2.52-.64A6.05,6.05,0,0,1,7,20.22L0,7.52H4.51l5.83,11.2a1,1,0,0,0,1,.67,1,1,0,0,0,1-.67l5.79-11.2h4.48l-7,12.7a6,6,0,0,1-1.7,2.15A4.6,4.6,0,0,1,11.26,23Z"/><path class="cls-1" d="M26.75.26a.64.64,0,0,1,1,0L29.66,2a.61.61,0,0,1,0,1.06L27.78,4.67a.67.67,0,0,1-1,0L24.86,3a.68.68,0,0,1,0-1.06Zm-1.47,22.3v-15h3.94v15Z"/><path class="cls-1" d="M43.26,23a4.52,4.52,0,0,1-2.52-.64A6.05,6.05,0,0,1,39,20.22L32,7.52h4.51l5.83,11.2a1,1,0,0,0,1,.67,1,1,0,0,0,1-.67l5.79-11.2h4.48l-7,12.7a6,6,0,0,1-1.7,2.15A4.6,4.6,0,0,1,43.26,23Z"/><path class="cls-1" d="M64.9,23a8.63,8.63,0,0,1-6.24-2.21A7.66,7.66,0,0,1,56.35,15a7.56,7.56,0,0,1,2.31-5.73A8.56,8.56,0,0,1,64.9,7.07h4.51a8.6,8.6,0,0,1,6.24,2.24A7.59,7.59,0,0,1,78,15a7.69,7.69,0,0,1-2.3,5.76A8.66,8.66,0,0,1,69.41,23Zm.38-3.3H69a5.06,5.06,0,0,0,3.62-1.21A4.64,4.64,0,0,0,73.89,15a4.5,4.5,0,0,0-1.28-3.42A5,5,0,0,0,69,10.37H65.28a4.8,4.8,0,0,0-3.58,1.25A4.47,4.47,0,0,0,60.42,15,4.6,4.6,0,0,0,61.7,18.5,4.91,4.91,0,0,0,65.28,19.71Z"/><path class="cls-1" d="M103.55,22.56V5.47H91.94V1.79h27.39V5.47H107.71V22.56Z"/><path class="cls-1" d="M132.38,23a3.72,3.72,0,0,1-2.4-.61,5.07,5.07,0,0,1-1.31-2L121.05,1.79h4.48l6.85,17.35L139.68,4a2.38,2.38,0,0,1,2.56-1.47,3.3,3.3,0,0,1,1.57.32,2.34,2.34,0,0,1,1,1.15l7.32,15.2,6.82-17.38h4.48l-7.61,18.56a4.45,4.45,0,0,1-1.22,1.95,3.62,3.62,0,0,1-2.5.71,3.52,3.52,0,0,1-2.2-.55,5,5,0,0,1-1.35-1.85l-6.3-13.35L135.9,20.61a4.94,4.94,0,0,1-1.28,1.85A3.62,3.62,0,0,1,132.38,23Z"/><path class="cls-1" d="M178.65,23a47.08,47.08,0,0,1-12.12-1.41V18a50.84,50.84,0,0,0,12.31,1.48q4.88,0,6.28-.71A1.8,1.8,0,0,0,186.27,17a1.54,1.54,0,0,0-.86-1.47,11.37,11.37,0,0,0-3-.87l-8.93-1.53a14.67,14.67,0,0,1-4.86-1.47q-2.25-1.15-2.34-4.32a4.57,4.57,0,0,1,2.43-4.45c1.73-1,5-1.51,9.67-1.51a60.81,60.81,0,0,1,11.26,1V5.92a60.89,60.89,0,0,0-11.3-1,29.21,29.21,0,0,0-5.47.35c-1.15.23-1.83.58-2.05,1a2.34,2.34,0,0,0-.19.93,1.56,1.56,0,0,0,.9,1.51,12.18,12.18,0,0,0,3,.83l8.89,1.5a12.78,12.78,0,0,1,5.35,1.79,4.76,4.76,0,0,1,1.88,4.1A4.69,4.69,0,0,1,188,21.54Q185.32,23,178.65,23Z"/><path class="cls-1" d="M232.83,23a6.57,6.57,0,0,1-1.73-.19,4.24,4.24,0,0,1-1.31-.8L211.48,6.62V22.56h-4.06V3.26c0-1.28.71-1.92,2.14-1.92a4.14,4.14,0,0,1,1.6.26,5,5,0,0,1,1.28.8l18.4,15.39v-16h4V21.31a1.7,1.7,0,0,1-.48,1.25A2.35,2.35,0,0,1,232.83,23Z"/><path class="cls-1" d="M258.65,14a17.52,17.52,0,0,1-.16,2.24H243.55a3.43,3.43,0,0,0,1.82,2.88,12.35,12.35,0,0,0,5.41.8,23.5,23.5,0,0,0,3.87-.32,16.83,16.83,0,0,0,3-.73V22a23.66,23.66,0,0,1-7.14,1c-3.92,0-6.71-.66-8.35-2s-2.41-3.3-2.37-5.95.82-4.66,2.46-6,4-2,7.11-2q5.06.1,7.23,2A6.06,6.06,0,0,1,258.65,14Zm-3.93-.22A3,3,0,0,0,253.5,11a7.14,7.14,0,0,0-4.13-.93,7.55,7.55,0,0,0-4.13.9,3.71,3.71,0,0,0-1.66,2.75Z"/><path class="cls-1" d="M270.3,23a8.66,8.66,0,0,1-6.24-2.21,7.65,7.65,0,0,1-2.3-5.76,7.56,7.56,0,0,1,2.3-5.73,8.6,8.6,0,0,1,6.24-2.24h4.51a8.56,8.56,0,0,1,6.24,2.24A7.56,7.56,0,0,1,283.36,15a7.66,7.66,0,0,1-2.31,5.76A8.63,8.63,0,0,1,274.81,23Zm.38-3.3h3.72A5,5,0,0,0,278,18.5,4.6,4.6,0,0,0,279.29,15,4.47,4.47,0,0,0,278,11.62a4.92,4.92,0,0,0-3.61-1.25h-3.72a4.82,4.82,0,0,0-3.58,1.25A4.5,4.5,0,0,0,265.82,15a4.64,4.64,0,0,0,1.28,3.46A4.93,4.93,0,0,0,270.68,19.71Z"/></g></g></g></svg>